<svg id="Capa_1" data-name="Capa 1" xmlns="http://www.w3.org/2000/svg" viewBox="0 0 97.8 68.6"><defs><style>.cls-1{font-size:30.01px;font-family:Gabriola;}.cls-1,.cls-5{fill:#fff;}.cls-2{letter-spacing:-0.01em;}.cls-3{letter-spacing:0em;}.cls-4{letter-spacing:-0.01em;}.cls-5{stroke:#fff;stroke-miterlimit:10;stroke-width:1.33px;}</style></defs><title>isotipo</title><text class="cls-1" transform="translate(42.13 23.38)">Ca<tspan class="cls-2" x="25.26" y="0">f</tspan><tspan x="31.77" y="0">é</tspan></text><text class="cls-1" transform="translate(32.02 48.35)"><tspan class="cls-3">A</tspan><tspan x="14.72" y="0">mou</tspan><tspan class="cls-4" x="56.42" y="0">r</tspan></text><path class="cls-5" d="M20.85,65.6c0,.14-.06.11,0,0,1.86-3.46,22.71-33,11.48-41.37-1.8-1.34-4.53-.12-4.75,5.2,0,0-2.27-9-7.28-8s-1.05,13.54,2.91,19C26.79,45.41,20.9,62.82,20.85,65.6Z" transform="translate(-0.48 -17.56)"/><path class="cls-5" d="M15.84,21.31c.07-.08,0-.22-.08-.18-3,1.15-24.35,10.4-9.28,40.44,0,0,1.35,3,6.7,4.24a3.82,3.82,0,0,0,4.59-3.11c.52-3.55.14-10.08-4.67-21C13.1,41.7,7.54,30.71,15.84,21.31Z" transform="translate(-0.48 -17.56)"/></svg>